<mxfile host="app.diagrams.net" modified="2023-09-29T23:03:08.369Z" agent="Mozilla/5.0 (Windows NT 10.0; Win64; x64) AppleWebKit/537.36 (KHTML, like Gecko) Chrome/115.0.0.0 Safari/537.36" etag="1nrEI0RWH_xbMsmf8KKC" version="22.0.0" type="github">
  <diagram name="Page-1" id="wvW3ehxdYdoYtSaxa3fH">
    <mxGraphModel dx="1434" dy="790" grid="1" gridSize="10" guides="1" tooltips="1" connect="1" arrows="1" fold="1" page="1" pageScale="1" pageWidth="850" pageHeight="1100" math="0" shadow="0">
      <root>
        <mxCell id="0" />
        <mxCell id="1" parent="0" />
        <mxCell id="StfwGNy7qWY20ujgkw8x-3" value="" style="edgeStyle=orthogonalEdgeStyle;rounded=0;orthogonalLoop=1;jettySize=auto;html=1;" edge="1" parent="1" source="StfwGNy7qWY20ujgkw8x-1" target="StfwGNy7qWY20ujgkw8x-2">
          <mxGeometry relative="1" as="geometry" />
        </mxCell>
        <mxCell id="StfwGNy7qWY20ujgkw8x-1" value="1. Data Ingestion" style="rounded=1;whiteSpace=wrap;html=1;" vertex="1" parent="1">
          <mxGeometry x="40" y="190" width="120" height="60" as="geometry" />
        </mxCell>
        <mxCell id="StfwGNy7qWY20ujgkw8x-5" value="" style="edgeStyle=orthogonalEdgeStyle;rounded=0;orthogonalLoop=1;jettySize=auto;html=1;" edge="1" parent="1" source="StfwGNy7qWY20ujgkw8x-2" target="StfwGNy7qWY20ujgkw8x-4">
          <mxGeometry relative="1" as="geometry" />
        </mxCell>
        <mxCell id="StfwGNy7qWY20ujgkw8x-2" value="Qradar Offences&lt;br&gt;(Fetch Incident)" style="whiteSpace=wrap;html=1;rounded=1;" vertex="1" parent="1">
          <mxGeometry x="240" y="190" width="120" height="60" as="geometry" />
        </mxCell>
        <mxCell id="StfwGNy7qWY20ujgkw8x-7" value="" style="edgeStyle=orthogonalEdgeStyle;rounded=0;orthogonalLoop=1;jettySize=auto;html=1;" edge="1" parent="1" source="StfwGNy7qWY20ujgkw8x-4" target="StfwGNy7qWY20ujgkw8x-6">
          <mxGeometry relative="1" as="geometry" />
        </mxCell>
        <mxCell id="StfwGNy7qWY20ujgkw8x-9" value="" style="edgeStyle=orthogonalEdgeStyle;rounded=0;orthogonalLoop=1;jettySize=auto;html=1;" edge="1" parent="1" source="StfwGNy7qWY20ujgkw8x-4" target="StfwGNy7qWY20ujgkw8x-8">
          <mxGeometry relative="1" as="geometry" />
        </mxCell>
        <mxCell id="StfwGNy7qWY20ujgkw8x-4" value="2. Data Extraction" style="whiteSpace=wrap;html=1;rounded=1;" vertex="1" parent="1">
          <mxGeometry x="440" y="190" width="120" height="60" as="geometry" />
        </mxCell>
        <mxCell id="StfwGNy7qWY20ujgkw8x-6" value="Destination IP Address" style="whiteSpace=wrap;html=1;rounded=1;" vertex="1" parent="1">
          <mxGeometry x="610" y="290" width="120" height="60" as="geometry" />
        </mxCell>
        <mxCell id="StfwGNy7qWY20ujgkw8x-11" value="" style="edgeStyle=orthogonalEdgeStyle;rounded=0;orthogonalLoop=1;jettySize=auto;html=1;" edge="1" parent="1" source="StfwGNy7qWY20ujgkw8x-8" target="StfwGNy7qWY20ujgkw8x-10">
          <mxGeometry relative="1" as="geometry" />
        </mxCell>
        <mxCell id="StfwGNy7qWY20ujgkw8x-8" value="Source IP Address" style="whiteSpace=wrap;html=1;rounded=1;" vertex="1" parent="1">
          <mxGeometry x="610" y="110" width="120" height="60" as="geometry" />
        </mxCell>
        <mxCell id="StfwGNy7qWY20ujgkw8x-10" value="" style="whiteSpace=wrap;html=1;rounded=1;" vertex="1" parent="1">
          <mxGeometry x="790" y="50" width="120" height="60" as="geometry" />
        </mxCell>
      </root>
    </mxGraphModel>
  </diagram>
</mxfile>
